<svg width="360" height="40" viewBox="0 0 360 40" fill="none" xmlns="http://www.w3.org/2000/svg">
<path d="M0.14 36L3.605 30.897L0.231 25.92H1.75L4.361 29.847L6.965 25.92H8.491L5.117 30.897L8.575 36H7.056L4.361 31.954L1.666 36H0.14ZM12.6355 36.21C11.8842 36.21 11.2355 36.0397 10.6895 35.699C10.1482 35.3583 9.73055 34.887 9.43655 34.285C9.14255 33.683 8.99555 32.9923 8.99555 32.213C8.99555 31.4197 9.14488 30.7243 9.44355 30.127C9.74221 29.5297 10.1645 29.0653 10.7105 28.734C11.2565 28.398 11.8982 28.23 12.6355 28.23C13.3915 28.23 14.0425 28.4003 14.5885 28.741C15.1345 29.077 15.5522 29.546 15.8415 30.148C16.1355 30.7453 16.2825 31.4337 16.2825 32.213C16.2825 33.0017 16.1355 33.697 15.8415 34.299C15.5475 34.8963 15.1275 35.3653 14.5815 35.706C14.0355 36.042 13.3869 36.21 12.6355 36.21ZM12.6355 35.027C13.4195 35.027 14.0029 34.7657 14.3855 34.243C14.7682 33.7203 14.9595 33.0437 14.9595 32.213C14.9595 31.359 14.7659 30.68 14.3785 30.176C13.9912 29.6673 13.4102 29.413 12.6355 29.413C12.1082 29.413 11.6742 29.532 11.3335 29.77C10.9929 30.008 10.7385 30.337 10.5705 30.757C10.4025 31.177 10.3185 31.6623 10.3185 32.213C10.3185 33.0623 10.5145 33.7437 10.9065 34.257C11.2985 34.7703 11.8749 35.027 12.6355 35.027ZM21.2958 36.21C20.5864 36.21 19.9891 36.035 19.5038 35.685C19.0184 35.3303 18.6498 34.852 18.3978 34.25C18.1504 33.6433 18.0268 32.9643 18.0268 32.213C18.0268 31.4523 18.1504 30.771 18.3978 30.169C18.6498 29.567 19.0184 29.0933 19.5038 28.748C19.9938 28.4027 20.5934 28.23 21.3028 28.23C22.0028 28.23 22.6048 28.405 23.1088 28.755C23.6174 29.1003 24.0071 29.574 24.2778 30.176C24.5484 30.778 24.6838 31.457 24.6838 32.213C24.6838 32.969 24.5484 33.648 24.2778 34.25C24.0071 34.852 23.6174 35.3303 23.1088 35.685C22.6048 36.035 22.0004 36.21 21.2958 36.21ZM17.8168 39.36V28.44H18.9298V34.005H19.0698V39.36H17.8168ZM21.1418 35.069C21.6411 35.069 22.0541 34.943 22.3808 34.691C22.7074 34.439 22.9524 34.0983 23.1158 33.669C23.2791 33.235 23.3608 32.7497 23.3608 32.213C23.3608 31.681 23.2791 31.2003 23.1158 30.771C22.9571 30.3417 22.7098 30.001 22.3738 29.749C22.0424 29.497 21.6201 29.371 21.1068 29.371C20.6168 29.371 20.2108 29.4923 19.8888 29.735C19.5668 29.973 19.3264 30.3067 19.1678 30.736C19.0091 31.1607 18.9298 31.653 18.9298 32.213C18.9298 32.7637 19.0068 33.256 19.1608 33.69C19.3194 34.1193 19.5621 34.4577 19.8888 34.705C20.2154 34.9477 20.6331 35.069 21.1418 35.069ZM29.4383 36.21C28.6869 36.21 28.0383 36.0397 27.4923 35.699C26.9509 35.3583 26.5333 34.887 26.2393 34.285C25.9453 33.683 25.7983 32.9923 25.7983 32.213C25.7983 31.4197 25.9476 30.7243 26.2463 30.127C26.5449 29.5297 26.9673 29.0653 27.5133 28.734C28.0593 28.398 28.7009 28.23 29.4383 28.23C30.1943 28.23 30.8453 28.4003 31.3913 28.741C31.9373 29.077 32.3549 29.546 32.6443 30.148C32.9383 30.7453 33.0853 31.4337 33.0853 32.213C33.0853 33.0017 32.9383 33.697 32.6443 34.299C32.3503 34.8963 31.9303 35.3653 31.3843 35.706C30.8383 36.042 30.1896 36.21 29.4383 36.21ZM29.4383 35.027C30.2223 35.027 30.8056 34.7657 31.1883 34.243C31.5709 33.7203 31.7623 33.0437 31.7623 32.213C31.7623 31.359 31.5686 30.68 31.1813 30.176C30.7939 29.6673 30.2129 29.413 29.4383 29.413C28.9109 29.413 28.4769 29.532 28.1363 29.77C27.7956 30.008 27.5413 30.337 27.3733 30.757C27.2053 31.177 27.1213 31.6623 27.1213 32.213C27.1213 33.0623 27.3173 33.7437 27.7093 34.257C28.1013 34.7703 28.6776 35.027 29.4383 35.027ZM34.6195 36V28.44H35.8235V34.866H38.4275V28.44H39.6315V34.866H42.2285V28.44H43.4325V36H34.6195ZM48.6623 36.21C47.9203 36.21 47.2716 36.0467 46.7163 35.72C46.1656 35.3887 45.7363 34.929 45.4283 34.341C45.1203 33.7483 44.9663 33.0577 44.9663 32.269C44.9663 31.443 45.1179 30.729 45.4213 30.127C45.7246 29.5203 46.1469 29.0537 46.6883 28.727C47.2343 28.3957 47.8736 28.23 48.6063 28.23C49.3669 28.23 50.0133 28.405 50.5453 28.755C51.0819 29.105 51.4833 29.6043 51.7493 30.253C52.0199 30.9017 52.1366 31.674 52.0993 32.57H50.8393V32.122C50.8253 31.1933 50.6363 30.5003 50.2723 30.043C49.9083 29.581 49.3669 29.35 48.6483 29.35C47.8783 29.35 47.2926 29.5973 46.8913 30.092C46.4899 30.5867 46.2893 31.296 46.2893 32.22C46.2893 33.1113 46.4899 33.802 46.8913 34.292C47.2926 34.782 47.8643 35.027 48.6063 35.027C49.1056 35.027 49.5396 34.9127 49.9083 34.684C50.2769 34.4553 50.5663 34.1263 50.7763 33.697L51.9733 34.11C51.6793 34.7773 51.2359 35.2953 50.6433 35.664C50.0553 36.028 49.3949 36.21 48.6623 36.21ZM45.8693 32.57V31.569H51.4553V32.57H45.8693ZM56.9337 36.21C56.1917 36.21 55.5431 36.0467 54.9877 35.72C54.4371 35.3887 54.0077 34.929 53.6997 34.341C53.3917 33.7483 53.2377 33.0577 53.2377 32.269C53.2377 31.443 53.3894 30.729 53.6927 30.127C53.9961 29.5203 54.4184 29.0537 54.9597 28.727C55.5057 28.3957 56.1451 28.23 56.8777 28.23C57.6384 28.23 58.2847 28.405 58.8167 28.755C59.3534 29.105 59.7547 29.6043 60.0207 30.253C60.2914 30.9017 60.4081 31.674 60.3707 32.57H59.1107V32.122C59.0967 31.1933 58.9077 30.5003 58.5437 30.043C58.1797 29.581 57.6384 29.35 56.9197 29.35C56.1497 29.35 55.5641 29.5973 55.1627 30.092C54.7614 30.5867 54.5607 31.296 54.5607 32.22C54.5607 33.1113 54.7614 33.802 55.1627 34.292C55.5641 34.782 56.1357 35.027 56.8777 35.027C57.3771 35.027 57.8111 34.9127 58.1797 34.684C58.5484 34.4553 58.8377 34.1263 59.0477 33.697L60.2447 34.11C59.9507 34.7773 59.5074 35.2953 58.9147 35.664C58.3267 36.028 57.6664 36.21 56.9337 36.21ZM54.1407 32.57V31.569H59.7267V32.57H54.1407Z" fill="#838383"/>
<path d="M108.124 36.21C107.121 36.21 106.269 35.9883 105.569 35.545C104.869 35.1017 104.335 34.4857 103.966 33.697C103.602 32.9083 103.42 31.996 103.42 30.96C103.42 29.924 103.602 29.0117 103.966 28.223C104.335 27.4343 104.869 26.8183 105.569 26.375C106.269 25.9317 107.121 25.71 108.124 25.71C109.132 25.71 109.986 25.9317 110.686 26.375C111.386 26.8183 111.918 27.4343 112.282 28.223C112.646 29.0117 112.828 29.924 112.828 30.96C112.828 31.996 112.646 32.9083 112.282 33.697C111.918 34.4857 111.386 35.1017 110.686 35.545C109.986 35.9883 109.132 36.21 108.124 36.21ZM108.124 35.02C108.875 35.0247 109.501 34.8567 110 34.516C110.504 34.1707 110.88 33.6923 111.127 33.081C111.379 32.4697 111.505 31.7627 111.505 30.96C111.505 30.1527 111.379 29.4457 111.127 28.839C110.88 28.2323 110.504 27.7587 110 27.418C109.501 27.0773 108.875 26.9047 108.124 26.9C107.373 26.8953 106.747 27.0633 106.248 27.404C105.753 27.7447 105.38 28.2207 105.128 28.832C104.876 29.4433 104.748 30.1527 104.743 30.96C104.738 31.7627 104.862 32.4673 105.114 33.074C105.366 33.6807 105.742 34.1567 106.241 34.502C106.745 34.8427 107.373 35.0153 108.124 35.02ZM116.236 36V29.574H113.604V28.44H120.114V29.574H117.482V36H116.236ZM120.602 36V34.929C120.882 34.9803 121.095 34.971 121.239 34.901C121.389 34.8263 121.498 34.698 121.568 34.516C121.643 34.3293 121.704 34.096 121.75 33.816C121.83 33.3727 121.897 32.878 121.953 32.332C122.014 31.786 122.068 31.1887 122.114 30.54C122.166 29.8867 122.212 29.1867 122.254 28.44H127.539V36H126.293V29.623H123.388C123.36 30.0523 123.325 30.4933 123.283 30.946C123.246 31.3987 123.206 31.8397 123.164 32.269C123.122 32.6937 123.076 33.0903 123.024 33.459C122.978 33.823 122.926 34.138 122.87 34.404C122.782 34.8613 122.658 35.2277 122.499 35.503C122.341 35.7737 122.112 35.9487 121.813 36.028C121.515 36.112 121.111 36.1027 120.602 36ZM135.693 28.44V36H134.489V30.428L130.527 36H129.498V28.44H130.702V33.935L134.671 28.44H135.693ZM142.204 36V33.277C141.952 33.403 141.646 33.5103 141.287 33.599C140.932 33.6877 140.552 33.732 140.146 33.732C139.376 33.732 138.755 33.5593 138.284 33.214C137.812 32.8687 137.504 32.3717 137.36 31.723C137.318 31.527 137.287 31.324 137.269 31.114C137.255 30.904 137.245 30.7127 137.241 30.54C137.236 30.3673 137.234 30.2413 137.234 30.162V28.44H138.494V30.162C138.494 30.2973 138.498 30.4653 138.508 30.666C138.517 30.862 138.54 31.0533 138.578 31.24C138.671 31.702 138.865 32.0497 139.159 32.283C139.457 32.5163 139.877 32.633 140.419 32.633C140.783 32.633 141.119 32.5863 141.427 32.493C141.735 32.3997 141.994 32.276 142.204 32.122V28.44H143.457V36H142.204ZM145.412 36V28.44H146.658V31.625H150.634V28.44H151.88V36H150.634V32.808H146.658V36H145.412ZM157.061 36.21C156.31 36.21 155.661 36.0397 155.115 35.699C154.574 35.3583 154.156 34.887 153.862 34.285C153.568 33.683 153.421 32.9923 153.421 32.213C153.421 31.4197 153.571 30.7243 153.869 30.127C154.168 29.5297 154.59 29.0653 155.136 28.734C155.682 28.398 156.324 28.23 157.061 28.23C157.817 28.23 158.468 28.4003 159.014 28.741C159.56 29.077 159.978 29.546 160.267 30.148C160.561 30.7453 160.708 31.4337 160.708 32.213C160.708 33.0017 160.561 33.697 160.267 34.299C159.973 34.8963 159.553 35.3653 159.007 35.706C158.461 36.042 157.813 36.21 157.061 36.21ZM157.061 35.027C157.845 35.027 158.429 34.7657 158.811 34.243C159.194 33.7203 159.385 33.0437 159.385 32.213C159.385 31.359 159.192 30.68 158.804 30.176C158.417 29.6673 157.836 29.413 157.061 29.413C156.534 29.413 156.1 29.532 155.759 29.77C155.419 30.008 155.164 30.337 154.996 30.757C154.828 31.177 154.744 31.6623 154.744 32.213C154.744 33.0623 154.94 33.7437 155.332 34.257C155.724 34.7703 156.301 35.027 157.061 35.027ZM165.526 36.21C164.784 36.21 164.135 36.0467 163.58 35.72C163.029 35.3887 162.6 34.929 162.292 34.341C161.984 33.7483 161.83 33.0577 161.83 32.269C161.83 31.443 161.981 30.729 162.285 30.127C162.588 29.5203 163.01 29.0537 163.552 28.727C164.098 28.3957 164.737 28.23 165.47 28.23C166.23 28.23 166.877 28.405 167.409 28.755C167.945 29.105 168.347 29.6043 168.613 30.253C168.883 30.9017 169 31.674 168.963 32.57H167.703V32.122C167.689 31.1933 167.5 30.5003 167.136 30.043C166.772 29.581 166.23 29.35 165.512 29.35C164.742 29.35 164.156 29.5973 163.755 30.092C163.353 30.5867 163.153 31.296 163.153 32.22C163.153 33.1113 163.353 33.802 163.755 34.292C164.156 34.782 164.728 35.027 165.47 35.027C165.969 35.027 166.403 34.9127 166.772 34.684C167.14 34.4553 167.43 34.1263 167.64 33.697L168.837 34.11C168.543 34.7773 168.099 35.2953 167.507 35.664C166.919 36.028 166.258 36.21 165.526 36.21ZM162.733 32.57V31.569H168.319V32.57H162.733Z" fill="#202020"/>
<path d="M212.98 36V25.92H214.226V30.365H219.532V25.92H220.778V36H219.532V31.548H214.226V36H212.98ZM225.962 36.21C225.21 36.21 224.562 36.0397 224.016 35.699C223.474 35.3583 223.057 34.887 222.763 34.285C222.469 33.683 222.322 32.9923 222.322 32.213C222.322 31.4197 222.471 30.7243 222.77 30.127C223.068 29.5297 223.491 29.0653 224.037 28.734C224.583 28.398 225.224 28.23 225.962 28.23C226.718 28.23 227.369 28.4003 227.915 28.741C228.461 29.077 228.878 29.546 229.168 30.148C229.462 30.7453 229.609 31.4337 229.609 32.213C229.609 33.0017 229.462 33.697 229.168 34.299C228.874 34.8963 228.454 35.3653 227.908 35.706C227.362 36.042 226.713 36.21 225.962 36.21ZM225.962 35.027C226.746 35.027 227.329 34.7657 227.712 34.243C228.094 33.7203 228.286 33.0437 228.286 32.213C228.286 31.359 228.092 30.68 227.705 30.176C227.317 29.6673 226.736 29.413 225.962 29.413C225.434 29.413 225 29.532 224.66 29.77C224.319 30.008 224.065 30.337 223.897 30.757C223.729 31.177 223.645 31.6623 223.645 32.213C223.645 33.0623 223.841 33.7437 224.233 34.257C224.625 34.7703 225.201 35.027 225.962 35.027ZM231.143 36V28.44H234.363C234.554 28.44 234.76 28.4517 234.979 28.475C235.203 28.4937 235.406 28.5287 235.588 28.58C235.994 28.6873 236.328 28.909 236.589 29.245C236.855 29.5763 236.988 29.9963 236.988 30.505C236.988 30.7897 236.944 31.037 236.855 31.247C236.771 31.457 236.65 31.639 236.491 31.793C236.421 31.863 236.344 31.926 236.26 31.982C236.176 32.038 236.092 32.0823 236.008 32.115C236.171 32.143 236.337 32.206 236.505 32.304C236.771 32.4487 236.979 32.6517 237.128 32.913C237.282 33.1743 237.359 33.508 237.359 33.914C237.359 34.4273 237.235 34.852 236.988 35.188C236.741 35.5193 236.4 35.748 235.966 35.874C235.784 35.9253 235.583 35.9603 235.364 35.979C235.145 35.993 234.932 36 234.727 36H231.143ZM232.403 34.985H234.657C234.755 34.985 234.872 34.9757 235.007 34.957C235.147 34.9383 235.271 34.915 235.378 34.887C235.621 34.817 235.796 34.6863 235.903 34.495C236.015 34.3037 236.071 34.096 236.071 33.872C236.071 33.5733 235.987 33.3307 235.819 33.144C235.656 32.9573 235.439 32.8407 235.168 32.794C235.07 32.766 234.963 32.7497 234.846 32.745C234.734 32.7403 234.634 32.738 234.545 32.738H232.403V34.985ZM232.403 31.709H234.279C234.41 31.709 234.547 31.702 234.692 31.688C234.837 31.6693 234.963 31.639 235.07 31.597C235.285 31.5177 235.441 31.387 235.539 31.205C235.642 31.0183 235.693 30.8153 235.693 30.596C235.693 30.3533 235.637 30.141 235.525 29.959C235.418 29.7723 235.252 29.644 235.028 29.574C234.879 29.518 234.711 29.4877 234.524 29.483C234.342 29.4737 234.225 29.469 234.174 29.469H232.403V31.709ZM241.985 36.21C241.234 36.21 240.585 36.0397 240.039 35.699C239.498 35.3583 239.08 34.887 238.786 34.285C238.492 33.683 238.345 32.9923 238.345 32.213C238.345 31.4197 238.494 30.7243 238.793 30.127C239.092 29.5297 239.514 29.0653 240.06 28.734C240.606 28.398 241.248 28.23 241.985 28.23C242.741 28.23 243.392 28.4003 243.938 28.741C244.484 29.077 244.902 29.546 245.191 30.148C245.485 30.7453 245.632 31.4337 245.632 32.213C245.632 33.0017 245.485 33.697 245.191 34.299C244.897 34.8963 244.477 35.3653 243.931 35.706C243.385 36.042 242.736 36.21 241.985 36.21ZM241.985 35.027C242.769 35.027 243.352 34.7657 243.735 34.243C244.118 33.7203 244.309 33.0437 244.309 32.213C244.309 31.359 244.115 30.68 243.728 30.176C243.341 29.6673 242.76 29.413 241.985 29.413C241.458 29.413 241.024 29.532 240.683 29.77C240.342 30.008 240.088 30.337 239.92 30.757C239.752 31.177 239.668 31.6623 239.668 32.213C239.668 33.0623 239.864 33.7437 240.256 34.257C240.648 34.7703 241.224 35.027 241.985 35.027ZM250.449 36.21C249.707 36.21 249.059 36.0467 248.503 35.72C247.953 35.3887 247.523 34.929 247.215 34.341C246.907 33.7483 246.753 33.0577 246.753 32.269C246.753 31.443 246.905 30.729 247.208 30.127C247.512 29.5203 247.934 29.0537 248.475 28.727C249.021 28.3957 249.661 28.23 250.393 28.23C251.154 28.23 251.8 28.405 252.332 28.755C252.869 29.105 253.27 29.6043 253.536 30.253C253.807 30.9017 253.924 31.674 253.886 32.57H252.626V32.122C252.612 31.1933 252.423 30.5003 252.059 30.043C251.695 29.581 251.154 29.35 250.435 29.35C249.665 29.35 249.08 29.5973 248.678 30.092C248.277 30.5867 248.076 31.296 248.076 32.22C248.076 33.1113 248.277 33.802 248.678 34.292C249.08 34.782 249.651 35.027 250.393 35.027C250.893 35.027 251.327 34.9127 251.695 34.684C252.064 34.4553 252.353 34.1263 252.563 33.697L253.76 34.11C253.466 34.7773 253.023 35.2953 252.43 35.664C251.842 36.028 251.182 36.21 250.449 36.21ZM247.656 32.57V31.569H253.242V32.57H247.656Z" fill="#838383"/>
<path d="M302.124 36.21C301.121 36.21 300.269 35.9883 299.569 35.545C298.869 35.1017 298.335 34.4857 297.966 33.697C297.602 32.9083 297.42 31.996 297.42 30.96C297.42 29.924 297.602 29.0117 297.966 28.223C298.335 27.4343 298.869 26.8183 299.569 26.375C300.269 25.9317 301.121 25.71 302.124 25.71C303.291 25.71 304.25 26.0063 305.001 26.599C305.757 27.1917 306.277 27.9897 306.562 28.993L305.295 29.329C305.09 28.5777 304.723 27.985 304.196 27.551C303.669 27.117 302.978 26.9 302.124 26.9C301.373 26.9 300.747 27.0703 300.248 27.411C299.749 27.7517 299.373 28.2277 299.121 28.839C298.869 29.4457 298.741 30.1527 298.736 30.96C298.731 31.7627 298.855 32.4697 299.107 33.081C299.359 33.6877 299.737 34.1637 300.241 34.509C300.745 34.8497 301.373 35.02 302.124 35.02C302.978 35.02 303.669 34.803 304.196 34.369C304.723 33.9303 305.09 33.3377 305.295 32.591L306.562 32.927C306.277 33.9257 305.757 34.7237 305.001 35.321C304.25 35.9137 303.291 36.21 302.124 36.21ZM313.973 36.217C313.259 36.2123 312.65 36.0583 312.146 35.755C311.642 35.447 311.25 34.9967 310.97 34.404C310.69 33.8113 310.534 33.0857 310.501 32.227C310.482 31.8303 310.487 31.394 310.515 30.918C310.548 30.442 310.599 29.9847 310.669 29.546C310.744 29.1073 310.837 28.7457 310.949 28.461C311.075 28.1203 311.252 27.8053 311.481 27.516C311.714 27.222 311.976 26.9793 312.265 26.788C312.559 26.5873 312.888 26.431 313.252 26.319C313.616 26.207 313.996 26.1207 314.393 26.06C314.794 25.9947 315.196 25.9387 315.597 25.892C315.998 25.8407 316.381 25.78 316.745 25.71L316.871 26.83C316.614 26.886 316.311 26.935 315.961 26.977C315.611 27.0143 315.247 27.0587 314.869 27.11C314.496 27.1613 314.136 27.2337 313.791 27.327C313.45 27.4157 313.156 27.5393 312.909 27.698C312.545 27.9173 312.265 28.2463 312.069 28.685C311.878 29.119 311.761 29.6067 311.719 30.148C312.008 29.7 312.384 29.371 312.846 29.161C313.308 28.951 313.8 28.846 314.323 28.846C315 28.846 315.583 29.0047 316.073 29.322C316.563 29.6347 316.939 30.0663 317.2 30.617C317.466 31.1677 317.599 31.7953 317.599 32.5C317.599 33.2467 317.45 33.9 317.151 34.46C316.852 35.02 316.43 35.454 315.884 35.762C315.343 36.07 314.706 36.2217 313.973 36.217ZM314.05 35.034C314.783 35.034 315.338 34.8077 315.716 34.355C316.094 33.8977 316.283 33.291 316.283 32.535C316.283 31.7603 316.087 31.1513 315.695 30.708C315.303 30.26 314.752 30.036 314.043 30.036C313.324 30.036 312.774 30.26 312.391 30.708C312.013 31.1513 311.824 31.7603 311.824 32.535C311.824 33.3143 312.015 33.9257 312.398 34.369C312.781 34.8123 313.331 35.034 314.05 35.034ZM325.332 28.44V36H324.128V30.428L320.166 36H319.137V28.44H320.341V33.935L324.31 28.44H325.332ZM327.286 36L327.293 28.44H328.553V32.08L331.724 28.44H333.341L330.002 32.22L333.733 36H331.99L328.553 32.36V36H327.286ZM337.901 36.21C337.192 36.21 336.595 36.035 336.109 35.685C335.624 35.3303 335.255 34.852 335.003 34.25C334.756 33.6433 334.632 32.9643 334.632 32.213C334.632 31.4523 334.756 30.771 335.003 30.169C335.255 29.567 335.624 29.0933 336.109 28.748C336.599 28.4027 337.199 28.23 337.908 28.23C338.608 28.23 339.21 28.405 339.714 28.755C340.223 29.1003 340.613 29.574 340.883 30.176C341.154 30.778 341.289 31.457 341.289 32.213C341.289 32.969 341.154 33.648 340.883 34.25C340.613 34.852 340.223 35.3303 339.714 35.685C339.21 36.035 338.606 36.21 337.901 36.21ZM334.422 39.36V28.44H335.535V34.005H335.675V39.36H334.422ZM337.747 35.069C338.247 35.069 338.66 34.943 338.986 34.691C339.313 34.439 339.558 34.0983 339.721 33.669C339.885 33.235 339.966 32.7497 339.966 32.213C339.966 31.681 339.885 31.2003 339.721 30.771C339.563 30.3417 339.315 30.001 338.979 29.749C338.648 29.497 338.226 29.371 337.712 29.371C337.222 29.371 336.816 29.4923 336.494 29.735C336.172 29.973 335.932 30.3067 335.773 30.736C335.615 31.1607 335.535 31.653 335.535 32.213C335.535 32.7637 335.612 33.256 335.766 33.69C335.925 34.1193 336.168 34.4577 336.494 34.705C336.821 34.9477 337.239 35.069 337.747 35.069ZM346.044 36.21C345.292 36.21 344.644 36.0397 344.098 35.699C343.556 35.3583 343.139 34.887 342.845 34.285C342.551 33.683 342.404 32.9923 342.404 32.213C342.404 31.4197 342.553 30.7243 342.852 30.127C343.15 29.5297 343.573 29.0653 344.119 28.734C344.665 28.398 345.306 28.23 346.044 28.23C346.8 28.23 347.451 28.4003 347.997 28.741C348.543 29.077 348.96 29.546 349.25 30.148C349.544 30.7453 349.691 31.4337 349.691 32.213C349.691 33.0017 349.544 33.697 349.25 34.299C348.956 34.8963 348.536 35.3653 347.99 35.706C347.444 36.042 346.795 36.21 346.044 36.21ZM346.044 35.027C346.828 35.027 347.411 34.7657 347.794 34.243C348.176 33.7203 348.368 33.0437 348.368 32.213C348.368 31.359 348.174 30.68 347.787 30.176C347.399 29.6673 346.818 29.413 346.044 29.413C345.516 29.413 345.082 29.532 344.742 29.77C344.401 30.008 344.147 30.337 343.979 30.757C343.811 31.177 343.727 31.6623 343.727 32.213C343.727 33.0623 343.923 33.7437 344.315 34.257C344.707 34.7703 345.283 35.027 346.044 35.027ZM354.487 27.558C354.137 27.558 353.817 27.4717 353.528 27.299C353.239 27.1263 353.008 26.8977 352.835 26.613C352.662 26.3237 352.576 26.0017 352.576 25.647H353.584C353.584 25.8943 353.673 26.1067 353.85 26.284C354.027 26.4613 354.24 26.55 354.487 26.55C354.739 26.55 354.951 26.4613 355.124 26.284C355.301 26.1067 355.39 25.8943 355.39 25.647H356.398C356.398 26.0017 356.312 26.3237 356.139 26.613C355.971 26.8977 355.74 27.1263 355.446 27.299C355.157 27.4717 354.837 27.558 354.487 27.558ZM357.42 28.44V36H356.216V30.428L352.254 36H351.225V28.44H352.429V33.935L356.398 28.44H357.42Z" fill="#838383"/>
<path d="M0 9H360" stroke="#D9D9D9" stroke-width="2"/>
<rect x="127.5" y="0.5" width="17" height="17" rx="8.5" fill="#F1EDE8" stroke="#285141"/>
</svg>
