<svg width="159" height="26" viewBox="0 0 159 26" fill="none" xmlns="http://www.w3.org/2000/svg">
<path fill-rule="evenodd" clip-rule="evenodd" d="M0 14.8446V12.25H9.94121V14.8446H6.16581V25.0771H2.78588V14.8446H0ZM11.7581 25.0389V12.3326H15.138V17.5094H20.5869V12.3326H23.9053V25.0389H20.5869V19.6389H15.138V25.0389H11.7581ZM26.384 24.9833V12.25H36.79V14.9361H29.6819V17.3404H35.0079V19.7447H29.6819V22.6186H37.1178V24.9833H26.384Z" fill="#285141"/>
<path d="M52.2541 25.2537C49.6896 25.2537 47.4753 24.7421 45.6113 23.7187C43.7591 22.6953 42.3284 21.2636 41.3192 19.4237C40.3219 17.5838 39.8232 15.4445 39.8232 13.0058C39.8232 10.5671 40.3219 8.42776 41.3192 6.58784C42.3284 4.74793 43.7591 3.31628 45.6113 2.29289C47.4753 1.26951 49.6896 0.757812 52.2541 0.757812C55.1986 0.757812 57.6681 1.42737 59.6628 2.76648C61.6693 4.10559 63.0821 5.91829 63.9014 8.20457L59.0216 9.4457C58.5467 8.01949 57.7453 6.91446 56.6174 6.13059C55.4895 5.33583 54.035 4.93845 52.2541 4.93845C50.6275 4.93845 49.2681 5.27051 48.1758 5.93462C47.0954 6.59873 46.2821 7.53502 45.7359 8.74348C45.1898 9.95195 44.9167 11.3727 44.9167 13.0058C44.9167 14.6388 45.1898 16.0596 45.7359 17.2681C46.2821 18.4765 47.0954 19.4128 48.1758 20.0769C49.2681 20.741 50.6275 21.0731 52.2541 21.0731C54.035 21.0731 55.4895 20.6757 56.6174 19.881C57.7453 19.0862 58.5467 17.9812 59.0216 16.5659L63.9014 17.807C63.0821 20.0933 61.6693 21.906 59.6628 23.2451C57.6681 24.5842 55.1986 25.2537 52.2541 25.2537Z" fill="#285141"/>
<path fill-rule="evenodd" clip-rule="evenodd" d="M45.1894 24.3563L45.1884 24.3557C43.1985 23.2563 41.6631 21.7163 40.5873 19.7549L40.5864 19.7533L40.5855 19.7517C39.5223 17.7901 39.0039 15.5325 39.0039 12.9993C39.0039 10.4661 39.5223 8.20849 40.5855 6.24696L40.5864 6.24537L40.5873 6.24378C41.6631 4.28233 43.1985 2.74237 45.1884 1.64288L45.1894 1.64233L45.1904 1.64179C47.2029 0.536867 49.5684 0 52.2542 0C55.338 0 57.9857 0.70319 60.1458 2.1531C62.2991 3.59041 63.8104 5.53702 64.6798 7.96357L64.9479 8.71166L58.4712 10.359L58.238 9.65866C57.8056 8.36023 57.0932 7.39755 56.1225 6.72292L56.1203 6.72141L56.1182 6.71989C55.1663 6.04915 53.9008 5.68333 52.2542 5.68333C50.7506 5.68333 49.5589 5.98923 48.6303 6.55335C47.6979 7.12695 46.9831 7.93998 46.4929 9.02467C45.9968 10.1223 45.7361 11.4413 45.7361 12.9993C45.7361 14.5574 45.9968 15.8763 46.4929 16.974C46.9831 18.0586 47.6978 18.8716 48.6302 19.4452C49.5588 20.0094 50.7505 20.3153 52.2542 20.3153C53.9008 20.3153 55.1663 19.9495 56.1182 19.2787C57.0936 18.5914 57.8066 17.6258 58.2385 16.3384L58.4729 15.6401L64.9479 17.287L64.6798 18.0351C63.8104 20.4616 62.2991 22.4082 60.1458 23.8455C57.9857 25.2954 55.338 25.9986 52.2542 25.9986C49.5684 25.9986 47.2029 25.4618 45.1904 24.3568L45.1894 24.3563ZM59.6628 23.2386C61.4574 22.041 62.7771 20.4645 63.6219 18.5092C63.7217 18.2782 63.8149 18.042 63.9014 17.8005L59.0217 16.5594L59.0217 16.5594C58.5468 17.9747 57.7453 19.0798 56.6174 19.8745C55.4895 20.6693 54.0351 21.0666 52.2542 21.0666C50.6276 21.0666 49.2681 20.7346 48.1758 20.0705C47.0954 19.4064 46.2821 18.4701 45.736 17.2616C45.1898 16.0531 44.9167 14.6324 44.9167 12.9993C44.9167 11.3663 45.1898 9.94549 45.736 8.73702C46.2821 7.52855 47.0954 6.59227 48.1758 5.92815C49.2681 5.26404 50.6276 4.93198 52.2542 4.93198C54.0351 4.93198 55.4895 5.32936 56.6174 6.12412C57.7453 6.90799 58.5468 8.01303 59.0217 9.43924L63.9014 8.19811C63.8149 7.95662 63.7217 7.7204 63.6219 7.48948C62.7771 5.53416 61.4574 3.95768 59.6628 2.76001C57.6682 1.4209 55.1986 0.751347 52.2542 0.751347C49.6896 0.751347 47.4753 1.26304 45.6113 2.28643C43.7591 3.30981 42.3285 4.74146 41.3193 6.58138C40.3219 8.4213 39.8233 10.5606 39.8233 12.9993C39.8233 15.438 40.3219 17.5773 41.3193 19.4172C42.3285 21.2572 43.7591 22.6888 45.6113 23.7122C47.4753 24.7356 49.6896 25.2473 52.2542 25.2473C55.1986 25.2473 57.6682 24.5777 59.6628 23.2386Z" fill="#285141"/>
<path d="M80.5261 25.2482C78.4602 25.2482 76.6437 24.8672 75.0764 24.1051C73.5092 23.3321 72.2863 22.2488 71.4077 20.8553C70.5291 19.4617 70.0898 17.8232 70.0898 15.9397V1.27485L75.0052 1.24219V15.9071C75.0052 16.6801 75.1477 17.3823 75.4326 18.0137C75.7176 18.6452 76.1094 19.1895 76.608 19.6468C77.1186 20.1041 77.7063 20.4579 78.3712 20.7083C79.0479 20.9478 79.7662 21.0676 80.5261 21.0676C81.3097 21.0676 82.0339 20.9424 82.6988 20.692C83.3756 20.4416 83.9633 20.0877 84.4619 19.6305C84.9606 19.1732 85.3464 18.6289 85.6195 17.9974C85.9045 17.366 86.0469 16.6692 86.0469 15.9071V1.24219H90.9623V15.9397C90.9623 17.8232 90.523 19.4617 89.6444 20.8553C88.7658 22.2488 87.5429 23.3321 85.9757 24.1051C84.4085 24.8672 82.5919 25.2482 80.5261 25.2482Z" fill="#285141"/>
<path fill-rule="evenodd" clip-rule="evenodd" d="M74.6914 24.7668L74.6893 24.7658C72.9901 23.9277 71.6552 22.7463 70.6994 21.2303C69.7373 19.7043 69.2715 17.9316 69.2715 15.9387V0.527925L75.8256 0.484375V15.9061C75.8256 16.5934 75.952 17.1963 76.1908 17.7255C76.4362 18.2695 76.7684 18.7285 77.1851 19.1114C77.6169 19.4974 78.112 19.796 78.6754 20.0092C79.2513 20.212 79.8664 20.3152 80.5271 20.3152C81.2136 20.3152 81.831 20.2059 82.3885 19.9959L82.3909 19.9951L82.3932 19.9942C82.9715 19.7802 83.4655 19.4815 83.8835 19.0982C84.2992 18.717 84.6249 18.2605 84.8589 17.7194L84.8611 17.7143L84.8634 17.7091C85.1028 17.1787 85.2286 16.581 85.2286 15.9061V0.489839H91.7827V15.9387C91.7827 17.9316 91.3169 19.7043 90.3548 21.2303C89.399 22.7463 88.064 23.9277 86.3649 24.7658L86.3627 24.7668L86.3606 24.7678C84.6571 25.5962 82.7047 25.9985 80.5271 25.9985C78.3495 25.9985 76.3971 25.5962 74.6936 24.7678L74.6914 24.7668ZM78.3722 20.7073C77.7073 20.4569 77.1196 20.1031 76.6091 19.6458C76.1104 19.1885 75.7186 18.6442 75.4336 18.0127C75.1487 17.3813 75.0062 16.6791 75.0062 15.9061V1.24119L70.0909 1.27385V15.9387C70.0909 17.8222 70.5302 19.4607 71.4087 20.8543C72.2873 22.2478 73.5102 23.3311 75.0775 24.1041C76.6447 24.8662 78.4612 25.2472 80.5271 25.2472C82.593 25.2472 84.4095 24.8662 85.9767 24.1041C87.5439 23.3311 88.7668 22.2478 89.6454 20.8543C90.524 19.4607 90.9633 17.8222 90.9633 15.9387V1.24119H86.048V15.9061C86.048 16.6682 85.9055 17.365 85.6205 17.9964C85.3475 18.6279 84.9616 19.1722 84.4629 19.6295C83.9643 20.0867 83.3766 20.4406 82.6998 20.691C82.0349 20.9414 81.3107 21.0666 80.5271 21.0666C79.7672 21.0666 79.0489 20.9468 78.3722 20.7073Z" fill="#285141"/>
<path d="M98.3057 24.7583V1.24219H103.15V20.6103H114.192V24.7583H98.3057Z" fill="#285141"/>
<path fill-rule="evenodd" clip-rule="evenodd" d="M97.4863 25.5032V0.484375H103.969V19.8525H115.011V25.5032H97.4863ZM103.15 20.6038V1.23572H98.3057V24.7518H114.192V20.6038H103.15Z" fill="#285141"/>
<path d="M121.309 24.7583V5.39016H113.224V1.24219H134.239V5.39016H126.153V24.7583H121.309Z" fill="#285141"/>
<path fill-rule="evenodd" clip-rule="evenodd" d="M120.49 25.5188V6.15067H112.404V0.5H135.058V6.15067H126.973V25.5188H120.49ZM126.153 5.39932H134.239V1.25135H113.224V5.39932H121.309V24.7674H126.153V5.39932ZM144.351 25.5188V6.15067H137.203V0.5H158.92V6.15067H150.834V25.5188H144.351Z" fill="#285141"/>
</svg>
