<svg width="65" height="28" viewBox="0 0 65 28" fill="none" xmlns="http://www.w3.org/2000/svg">
<path d="M0.52 26.4844V0.564374H15.874V4.32637H4.282V11.6344H13.714V15.4144H4.282V26.4844H0.52ZM16.9661 26.4844L25.3901 0.564374H30.8081L39.2321 26.4844H35.3261L27.5681 2.83237H28.5401L20.8721 26.4844H16.9661ZM21.3401 20.6344V17.1064H34.8761V20.6344H21.3401ZM62.0803 27.0064L54.8443 19.8064L57.2563 17.3944L64.4563 24.5944L62.0803 27.0064ZM52.5763 27.0244C49.9843 27.0244 47.7763 26.4604 45.9523 25.3324C44.1283 24.1924 42.7303 22.6084 41.7583 20.5804C40.7983 18.5524 40.3183 16.2004 40.3183 13.5244C40.3183 10.8484 40.7983 8.49637 41.7583 6.46837C42.7303 4.44037 44.1283 2.86237 45.9523 1.73437C47.7763 0.594374 49.9843 0.0243745 52.5763 0.0243745C55.1563 0.0243745 57.3583 0.594374 59.1823 1.73437C61.0183 2.86237 62.4163 4.44037 63.3763 6.46837C64.3363 8.49637 64.8163 10.8484 64.8163 13.5244C64.8163 16.2004 64.3363 18.5524 63.3763 20.5804C62.4163 22.6084 61.0183 24.1924 59.1823 25.3324C57.3583 26.4604 55.1563 27.0244 52.5763 27.0244ZM52.5763 23.4424C54.4123 23.4664 55.9363 23.0644 57.1483 22.2364C58.3723 21.3964 59.2903 20.2324 59.9023 18.7444C60.5143 17.2444 60.8203 15.5044 60.8203 13.5244C60.8203 11.5444 60.5143 9.81637 59.9023 8.34037C59.2903 6.85237 58.3723 5.69437 57.1483 4.86637C55.9363 4.03837 54.4123 3.61837 52.5763 3.60637C50.7403 3.58237 49.2103 3.98437 47.9863 4.81237C46.7743 5.64037 45.8623 6.80437 45.2503 8.30438C44.6383 9.80437 44.3263 11.5444 44.3143 13.5244C44.3023 15.5044 44.6023 17.2384 45.2143 18.7264C45.8263 20.2024 46.7443 21.3544 47.9683 22.1824C49.2043 23.0104 50.7403 23.4304 52.5763 23.4424Z" fill="#202020"/>
</svg>
