<svg width="150" height="27" viewBox="0 0 150 27" fill="none" xmlns="http://www.w3.org/2000/svg">
<path fill-rule="evenodd" clip-rule="evenodd" d="M47.8308 0.589336C42.3152 1.40386 38.355 5.33138 37.3794 10.9543C37.1359 12.3584 37.1703 15.3873 37.4464 16.8341C38.1529 20.5373 40.3733 23.4391 43.7002 25.0068C47.682 26.8833 53.2955 26.7606 56.7779 24.7209C58.226 23.8729 60.0219 22.0252 60.8018 20.5814C61.3467 19.5725 62.2523 17.1088 62.2523 16.6353C62.2523 16.5461 60.9704 16.4859 59.0664 16.4859H55.8804L55.7895 17.0492C55.475 19.002 53.5544 20.3071 50.6778 20.5234C45.9183 20.8811 43.2593 18.2449 43.2691 13.1781C43.2741 10.5964 43.8408 9.0617 45.2637 7.7762C47.4249 5.82347 52.6541 5.78424 54.7808 7.70469C55.2272 8.10778 55.83 9.27766 55.836 9.7521C55.8391 10.0054 56.0939 10.0278 58.9677 10.0278C62.5905 10.0278 62.3423 10.1909 61.7201 8.21788C60.7021 4.98957 58.1087 2.29225 54.9776 1.2057C52.9439 0.500023 50.0981 0.254455 47.8308 0.589336ZM66.0063 8.59876C66.0063 13.2219 66.0735 16.7986 66.1742 17.5378C66.788 22.0379 69.34 25.0396 73.4534 26.099C75.996 26.7538 79.6206 26.65 82.0339 25.8532C85.6039 24.6743 87.7231 22.014 88.3671 17.9036C88.4609 17.3038 88.5278 13.5694 88.5285 8.88575L88.5297 0.891768H85.2504H81.9709L81.9266 9.20079C81.8823 17.4915 81.8814 17.5115 81.5226 18.2955C80.8589 19.7454 80.0568 20.3021 78.2725 20.5511C76.1501 20.8473 74.4391 20.2659 73.5574 18.9487C72.6677 17.6198 72.6741 17.6889 72.6149 8.96451L72.5598 0.891768H69.2831H66.0063V8.59876ZM93.3785 13.4144V25.937H101.825H110.271V23.3379V20.7389H104.953H99.635V10.8153V0.891768H96.5068H93.3785V13.4144ZM108.707 3.48765V6.08353L112.031 6.12606L115.355 6.16859L115.395 16.0528L115.435 25.937H118.484H121.533V16.0134V6.08983H124.896H128.259V3.4908V0.891768H118.483H108.707V3.48765ZM131.387 3.4908V6.08983H134.75H138.113V16.0134V25.937H141.161H144.21L144.251 16.0528L144.291 6.16859L147.145 6.12558L150 6.08274V3.48718V0.891768H140.693H131.387V3.4908ZM0 13.9657V15.3833H1.32951H2.65902V20.6601V25.937H4.30136H5.94369V20.6653V15.3937L7.70334 15.3491L9.46298 15.3046L9.50819 13.9263L9.55339 12.548H4.77669H0V13.9657ZM11.2617 19.2425V25.937H12.9041H14.5464V23.1804V20.4239H17.1272H19.708V23.1804V25.937H21.3521H22.9961L22.9553 19.2819L22.9145 12.6268L21.315 12.5819L19.7155 12.5372L19.6727 15.2597L19.6298 17.9824H17.1272H14.6246L14.5818 15.2652L14.5391 12.548H12.9003H11.2617V19.2425ZM25.3389 19.2425V25.937H30.5005H35.6621V24.6798V23.4227L32.1038 23.3803L28.5454 23.3379V21.9203V20.5026L31.0871 20.4593L33.6288 20.416V19.1637V17.9115L31.0871 17.8682L28.5454 17.8248V16.6435V15.4621L31.9473 15.4196L35.3493 15.3772V13.9625V12.548H30.3441H25.3389V19.2425Z" fill="#285141"/>
</svg>
