<svg width="159" height="26" viewBox="0 0 159 26" fill="none" xmlns="http://www.w3.org/2000/svg">
<path fill-rule="evenodd" clip-rule="evenodd" d="M0 14.8446V12.25H9.94121V14.8446H6.16581V25.0771H2.78588V14.8446H0ZM11.7581 25.0389V12.3326H15.138V17.5094H20.5869V12.3326H23.9053V25.0389H20.5869V19.6389H15.138V25.0389H11.7581ZM26.384 24.9833V12.25H36.79V14.9361H29.6819V17.3404H35.0079V19.7447H29.6819V22.6186H37.1178V24.9833H26.384Z" fill="#285141"/>
<path d="M52.2546 25.2537C49.6901 25.2537 47.4758 24.7421 45.6117 23.7187C43.7596 22.6953 42.3289 21.2636 41.3197 19.4237C40.3224 17.5838 39.8237 15.4445 39.8237 13.0058C39.8237 10.5671 40.3224 8.42776 41.3197 6.58784C42.3289 4.74793 43.7596 3.31628 45.6117 2.29289C47.4758 1.26951 49.6901 0.757812 52.2546 0.757812C55.1991 0.757812 57.6686 1.42737 59.6633 2.76648C61.6698 4.10559 63.0826 5.91829 63.9019 8.20457L59.0221 9.4457C58.5472 8.01949 57.7458 6.91446 56.6179 6.13059C55.4899 5.33583 54.0355 4.93845 52.2546 4.93845C50.628 4.93845 49.2686 5.27051 48.1763 5.93462C47.0958 6.59873 46.2826 7.53502 45.7364 8.74348C45.1903 9.95195 44.9172 11.3727 44.9172 13.0058C44.9172 14.6388 45.1903 16.0596 45.7364 17.2681C46.2826 18.4765 47.0958 19.4128 48.1763 20.0769C49.2686 20.741 50.628 21.0731 52.2546 21.0731C54.0355 21.0731 55.4899 20.6757 56.6179 19.881C57.7458 19.0862 58.5472 17.9812 59.0221 16.5659L63.9019 17.807C63.0826 20.0933 61.6698 21.906 59.6633 23.2451C57.6686 24.5842 55.1991 25.2537 52.2546 25.2537Z" fill="#285141"/>
<path fill-rule="evenodd" clip-rule="evenodd" d="M45.1896 24.3563L45.1887 24.3557C43.1987 23.2563 41.6634 21.7163 40.5875 19.7549L40.5866 19.7533L40.5858 19.7517C39.5225 17.7901 39.0042 15.5325 39.0042 12.9993C39.0042 10.4661 39.5225 8.20849 40.5858 6.24696L40.5866 6.24537L40.5875 6.24378C41.6634 4.28233 43.1987 2.74237 45.1887 1.64288L45.1896 1.64233L45.1906 1.64179C47.2032 0.536867 49.5686 0 52.2544 0C55.3383 0 57.9859 0.70319 60.1461 2.1531C62.2994 3.59041 63.8106 5.53702 64.6801 7.96357L64.9481 8.71166L58.4715 10.359L58.2383 9.65866C57.8059 8.36023 57.0935 7.39755 56.1227 6.72292L56.1206 6.72141L56.1184 6.71989C55.1665 6.04915 53.9011 5.68333 52.2544 5.68333C50.7508 5.68333 49.5592 5.98923 48.6305 6.55335C47.6981 7.12695 46.9834 7.93998 46.4932 9.02467C45.9971 10.1223 45.7364 11.4413 45.7364 12.9993C45.7364 14.5574 45.9971 15.8763 46.4932 16.974C46.9833 18.0586 47.6981 18.8716 48.6304 19.4452C49.5591 20.0094 50.7507 20.3153 52.2544 20.3153C53.9011 20.3153 55.1665 19.9495 56.1184 19.2787C57.0938 18.5914 57.8068 17.6258 58.2388 16.3384L58.4731 15.6401L64.9481 17.287L64.6801 18.0351C63.8106 20.4616 62.2994 22.4082 60.1461 23.8455C57.9859 25.2954 55.3383 25.9986 52.2544 25.9986C49.5686 25.9986 47.2032 25.4618 45.1906 24.3568L45.1896 24.3563Z" fill="#285141"/>
<path d="M80.5263 25.2482C78.4604 25.2482 76.6439 24.8672 75.0767 24.1051C73.5095 23.3321 72.2866 22.2488 71.408 20.8553C70.5294 19.4617 70.0901 17.8232 70.0901 15.9397V1.27485L75.0054 1.24219V15.9071C75.0054 16.6801 75.1479 17.3823 75.4329 18.0137C75.7178 18.6452 76.1096 19.1895 76.6083 19.6468C77.1188 20.1041 77.7065 20.4579 78.3714 20.7083C79.0481 20.9478 79.7665 21.0676 80.5263 21.0676C81.3099 21.0676 82.0342 20.9424 82.699 20.692C83.3758 20.4416 83.9635 20.0877 84.4622 19.6305C84.9608 19.1732 85.3467 18.6289 85.6198 17.9974C85.9047 17.366 86.0472 16.6692 86.0472 15.9071V1.24219H90.9625V15.9397C90.9625 17.8232 90.5232 19.4617 89.6447 20.8553C88.7661 22.2488 87.5432 23.3321 85.976 24.1051C84.4087 24.8672 82.5922 25.2482 80.5263 25.2482Z" fill="#285141"/>
<path fill-rule="evenodd" clip-rule="evenodd" d="M74.6914 24.7668L74.6893 24.7658C72.9901 23.9277 71.6552 22.7463 70.6994 21.2303C69.7373 19.7043 69.2715 17.9316 69.2715 15.9387V0.527925L75.8256 0.484375V15.9061C75.8256 16.5934 75.952 17.1963 76.1908 17.7255C76.4362 18.2695 76.7684 18.7285 77.1851 19.1114C77.6169 19.4974 78.112 19.796 78.6754 20.0092C79.2513 20.212 79.8664 20.3152 80.5271 20.3152C81.2136 20.3152 81.831 20.2059 82.3885 19.9959L82.3909 19.9951L82.3932 19.9942C82.9715 19.7802 83.4655 19.4815 83.8835 19.0982C84.2992 18.717 84.6249 18.2605 84.8589 17.7194L84.8611 17.7143L84.8634 17.7091C85.1028 17.1787 85.2286 16.581 85.2286 15.9061V0.489839H91.7827V15.9387C91.7827 17.9316 91.3169 19.7043 90.3548 21.2303C89.399 22.7463 88.064 23.9277 86.3649 24.7658L86.3627 24.7668L86.3606 24.7678C84.6571 25.5962 82.7047 25.9985 80.5271 25.9985C78.3495 25.9985 76.3971 25.5962 74.6936 24.7678L74.6914 24.7668Z" fill="#285141"/>
<path d="M98.3057 24.7583V1.24219H103.15V20.6103H114.192V24.7583H98.3057Z" fill="#285141"/>
<path fill-rule="evenodd" clip-rule="evenodd" d="M97.4861 25.5032V0.484375H103.969V19.8525H115.011V25.5032H97.4861Z" fill="#285141"/>
<path d="M121.31 24.7583V5.39016H113.224V1.24219H134.239V5.39016H126.154V24.7583H121.31Z" fill="#285141"/>
<path fill-rule="evenodd" clip-rule="evenodd" d="M120.49 25.5188V6.15067H112.405V0.5H135.058V6.15067H126.973V25.5188H120.49ZM144.352 25.5188V6.15067H137.203V0.5H158.92V6.15067H150.835V25.5188H144.352Z" fill="#285141"/>
</svg>
