<svg width="674" height="105" viewBox="0 0 674 105" fill="none" xmlns="http://www.w3.org/2000/svg">
<path d="M173.079 49.7931C176.781 41.4368 180.892 33.8349 184.164 24.6561C186.79 17.2847 189.79 10.343 192.747 3.40644C193.79 0.954557 195.153 -0.837203 196.873 0.404455C198.514 1.58848 199.61 2.78823 199.914 7.03187C200.287 12.2657 199.422 15.8021 197.775 20.161C194.561 28.6587 191.735 37.6699 188.746 46.4663C187.64 49.725 186.528 52.9785 185.364 56.41C188.065 59.5273 190.844 62.524 193.502 65.8508C196.108 69.1148 198.488 72.8502 198.336 80.7874C193.46 82.1234 189.26 80.4312 185.301 76.921C183.241 75.0925 181.212 73.1122 179.057 71.6714C177.515 70.6393 176.052 70.7913 174.804 74.8463C173.279 79.7867 171.27 84.24 169.519 88.9604C167.663 93.9532 162.54 95.9073 160.915 91.7056C159.578 88.2583 158.55 84.2766 159.2 78.9485C160.081 71.7343 160.742 64.4782 161.455 57.2326C162.902 42.5213 164.344 27.81 165.739 13.0935C166.331 6.83803 167.773 4.70573 170.825 5.88975C174.374 7.26763 175.916 12.47 175.161 21.9318C174.684 27.9148 173.761 33.8768 173.079 39.8598C172.723 42.9771 172.461 46.1048 172.156 49.2325C172.466 49.4211 172.775 49.6045 173.085 49.7931H173.079Z" fill="black"/>
<path d="M262.436 64.083C265.708 60.0343 269.42 56.3946 272.227 51.9106C274.479 48.3129 277.119 44.946 279.717 41.5791C280.637 40.3886 281.896 39.5495 283.668 40.2627C285.357 40.9393 286.496 41.6001 287.003 43.7608C287.625 46.4249 286.941 48.1713 285.514 50.2953C282.733 54.4332 280.365 58.8543 277.825 63.16C276.884 64.7543 275.943 66.3486 274.95 68.0268C277.783 69.7313 280.684 71.3833 283.48 73.1926C286.224 74.9705 288.765 76.9738 289 80.9806C284.228 81.4211 279.978 80.3618 275.88 78.3951C273.748 77.3724 271.636 76.2711 269.43 75.4372C267.852 74.8446 266.409 74.8498 265.363 76.8375C264.088 79.2604 262.311 81.4159 260.795 83.7182C259.196 86.1516 254.209 86.8911 252.39 84.6884C250.895 82.8791 249.682 80.818 250.074 78.1538C250.602 74.5509 250.906 70.9113 251.266 67.2821C251.993 59.9137 252.714 52.5452 253.388 45.1715C253.676 42.0406 255.004 41.0284 258.087 41.7731C261.673 42.6385 263.456 45.3446 263.163 50.0961C262.98 53.0959 262.353 56.0695 261.966 59.0588C261.762 60.6164 261.652 62.1897 261.501 63.7526C261.814 63.8627 262.133 63.9729 262.447 64.0777L262.436 64.083Z" fill="black"/>
<path d="M236.13 64.5428C239.452 68.4559 241.353 72.6333 242.579 77.1061C242.932 78.3966 243.101 79.8219 242.937 81.1384C242.727 82.8487 243.506 85.4246 240.995 85.8185C238.594 86.1968 235.894 86.1968 234.204 83.6624C232.851 81.6307 232.04 79.682 232.735 77.0594C233.683 73.4781 231.414 70.6638 229.413 67.9635C229.108 67.5489 227.986 67.5333 227.281 67.6162C224.912 67.8961 222.559 68.3056 219.832 68.7254C219.505 71.0784 219.19 73.4988 218.837 75.9088C218.621 77.386 218.416 78.8683 218.11 80.3298C217.695 82.3045 216.031 83.5899 214.146 83.4966C210.698 83.3255 208.203 80.9362 208.024 77.4015C207.934 75.6704 208.113 73.9186 208.292 72.1875C208.861 66.6263 209.44 61.0703 210.114 55.5246C210.303 53.9386 210.803 52.3838 211.198 50.8237C211.556 49.3881 212.056 47.9835 212.32 46.5323C212.63 44.8271 212.451 42.557 214.452 42.1424C216.61 41.6967 218.958 42.2823 220.59 44.1119C221.337 44.9463 222.18 45.8274 222.543 46.8381C223.543 49.6316 225.349 51.7307 227.539 53.6898C229.929 55.8252 231.745 58.4736 235.378 59.106C237.657 59.4999 237.841 60.5572 237.068 62.7547C236.868 63.3196 236.515 63.8327 236.141 64.5428H236.13Z" fill="black"/>
<path d="M370.608 49.7949C368.769 49.6901 367.289 49.6115 365.81 49.5172C363.876 49.3914 362.412 48.5689 361.667 46.7194C360.88 44.7651 359.828 42.9314 360.024 40.6471C360.193 38.6666 361.091 37.5506 362.972 37.3568C365.229 37.121 367.517 36.9272 369.778 37.0267C375.839 37.2992 381.926 37.5035 387.95 38.1846C392.515 38.7033 396.848 40.3484 400.119 43.7802C401.059 44.7704 401.392 46.3317 402 47.631C400.446 48.3017 398.904 48.988 397.334 49.622C397.155 49.6953 396.838 49.5381 396.621 49.4176C392.52 47.1281 388.267 48.5636 384.087 48.9828C380.922 49.3024 379.997 52.0582 379.654 54.4107C378.75 60.6035 378.386 66.8697 377.725 73.0992C377.308 77.0759 376.869 81.0577 376.177 84.9872C375.992 86.035 375.062 87.4025 374.127 87.785C372.394 88.4923 370.808 87.3501 370.021 85.8831C368.658 83.3316 367.913 80.5757 368.24 77.5788C369.075 69.9819 369.831 62.3796 370.555 54.7774C370.708 53.2004 370.592 51.5919 370.602 49.7896L370.608 49.7949Z" fill="black"/>
<path d="M429.898 69.9289C429.309 73.2289 428.859 77.4147 426.26 80.6409C424.25 83.1344 421.624 85.2906 418.912 87.0566C416.233 88.8015 412.953 87.7841 410.354 86.7403C406.678 85.2642 403.612 82.5756 402.106 78.7537C401.185 76.413 400.413 73.9353 400.124 71.4629C399.84 69.0169 400.097 66.4706 400.375 63.9982C400.852 59.7018 402.117 55.6004 404.47 51.9208C405.108 50.9244 406.099 49.6381 407.106 49.4589C410.97 48.7788 414.915 48.5153 418.821 48.0513C421.42 47.7403 423.221 48.8632 424.684 50.8559C429.641 57.5931 430.3 61.6049 429.904 69.9289H429.898ZM410.118 67.5355C410.493 69.9552 410.676 72.4329 411.297 74.7999C412.069 77.7573 413.194 78.0525 415.574 76.3129C420.659 72.5911 423.993 61.1726 421.645 55.5266C421.04 54.0663 419.186 53.2176 417.101 53.3019C415.375 53.3705 415.172 54.5092 414.829 55.8165C414.454 57.261 413.73 58.6211 413.162 60.0181C412.187 62.4272 411.211 64.8364 410.124 67.525L410.118 67.5355Z" fill="black"/>
<path d="M569.234 66.7349C566.917 70.7762 564.713 74.3857 562.754 78.1149C561.211 81.0483 558.991 82.2914 555.628 81.9429C552.687 81.636 550.829 80.6738 550.418 77.9069C549.842 73.9956 549.452 69.9648 552.132 66.402C553.044 65.185 553.995 64.332 555.612 64.7169C557.865 65.2526 559.236 64.1708 560.373 62.4596C562.316 59.5366 564.505 56.7488 566.224 53.701C567.179 52.0106 567.43 49.9354 567.916 48.011C568.732 44.7655 569.48 41.5096 570.291 38.1237C571.807 38.0769 573.051 37.952 574.289 38.0197C577.721 38.2069 580.267 40.8022 580.043 44.1934C579.878 46.6587 579.451 49.1604 578.735 51.5321C577.134 56.8372 578.015 61.8823 580.129 66.7921C580.876 68.5241 581.612 70.3653 584.538 70.022C586.326 69.8139 588.119 71.2026 589 73.4547C588.674 74.1465 588.338 75.0827 587.82 75.9044C586.251 78.3906 583.833 78.9575 580.844 78.1721C575.896 76.8666 573.125 73.3507 570.718 69.3719C570.28 68.6489 569.885 67.8999 569.234 66.7401V66.7349Z" fill="black"/>
<path d="M621.898 61.9289C621.309 65.2289 620.859 69.4147 618.26 72.6409C616.25 75.1344 613.624 77.2906 610.912 79.0566C608.233 80.8015 604.953 79.7841 602.354 78.7403C598.678 77.2642 595.612 74.5756 594.106 70.7537C593.185 68.413 592.413 65.9353 592.124 63.4629C591.84 61.0169 592.097 58.4706 592.375 55.9982C592.852 51.7018 594.117 47.6004 596.47 43.9208C597.107 42.9244 598.099 41.6381 599.106 41.4589C602.97 40.7788 606.915 40.5153 610.821 40.0513C613.42 39.7403 615.221 40.8632 616.684 42.8559C621.641 49.5931 622.3 53.6049 621.904 61.9289H621.898ZM602.118 59.5355C602.493 61.9552 602.676 64.4329 603.297 66.7999C604.069 69.7573 605.194 70.0525 607.574 68.3129C612.659 64.5911 615.993 53.1726 613.645 47.5266C613.04 46.0663 611.186 45.2176 609.101 45.3019C607.375 45.3705 607.172 46.5092 606.829 47.8165C606.454 49.261 605.73 50.6211 605.162 52.0181C604.187 54.4272 603.211 56.8364 602.124 59.525L602.118 59.5355Z" fill="black"/>
<path d="M518.147 72.4477C518.157 68.6895 518.258 66.8104 518.215 65.9787C518.067 63.3469 518.311 60.2887 518.797 54.1724C518.818 53.904 518.897 52.9618 518.95 51.6722C518.95 51.5564 518.987 50.8353 518.998 50.0457C519.024 48.3772 518.818 46.1559 518.76 43.5873C518.67 39.7554 516.798 37.3078 514.293 35.5603C512.077 34.0128 509.83 35.8498 510.01 38.8816C510.1 40.4186 510.359 41.9345 510.428 43.4715C510.528 45.7664 510.808 48.0824 510.338 50.2615C510.206 53.8145 510.38 57.3674 510.433 60.9204C510.56 62.2205 510.502 63.5522 510.417 64.9155C510.391 65.7945 510.348 66.6735 510.28 67.5525C510.237 69.9843 510.555 72.3582 511.913 74.511C513.114 76.4112 514.515 76.0796 516.011 75.7322C517.475 75.3953 518.147 74.2373 518.152 72.4477H518.147Z" fill="black"/>
<path d="M545.158 58.1361C546.051 48.1529 546.696 40.8123 546.956 38.2588C546.977 38.0229 547.077 37.2626 546.882 36.3031C546.527 34.5414 545.411 33.2148 544.237 31.9407C542.566 30.1265 539.885 31.086 539.298 33.5399C539.039 34.6305 539.055 35.784 538.96 36.9113C538.42 43.2714 537.881 49.6315 537.31 56.3534C537.31 56.3534 537.257 65.7966 537.246 66.5254C537.188 70.6676 537.066 74.8098 537.003 78.9572C536.939 83.2462 537.923 84.1533 543.058 83.9803C543.396 79.8066 543.968 72.7492 544.306 68.5755C544.481 66.431 544.972 60.2859 545.147 58.1414L545.158 58.1361Z" fill="black"/>
<path d="M512.603 50.0052C514.271 50.093 515.278 50.9503 515.919 52.7011C516.786 55.0716 516.838 54.8599 519.038 54.6636C520.763 54.5087 522.586 54.5397 524.233 55.0923C525.488 55.5158 526.851 56.6003 527.605 57.876C529.278 60.701 530.399 63.8152 529.867 67.5699C529.454 70.5137 528.034 72.7241 526.603 74.8054C525.271 76.7473 523.623 78.5291 521.548 79.531C520.189 80.1869 519.146 80.2747 518.134 79.0094C517.328 78.0023 516.662 76.7783 516.125 75.5336C515.867 74.9397 515.955 74.0411 516.063 73.3232C516.223 72.3006 516.89 71.6292 517.711 71.748C518.217 71.8203 518.749 72.4246 519.115 72.9462C519.497 73.4936 519.694 74.2322 520.096 75.167C521.01 74.3045 521.894 73.7364 522.472 72.8739C524.135 70.4052 525.922 67.9882 525.844 64.4453C525.798 62.2762 524.76 60.9747 523.334 60.1484C522.054 59.4099 520.778 59.5028 519.373 60.4066C517.638 61.5222 517.086 63.056 517.003 65.2407C516.941 66.9191 516.693 68.5976 516.404 70.2451C516.239 71.1747 515.821 72.0372 515.397 73.3026C514.406 72.311 513.636 71.6241 512.944 70.839C512.133 69.9146 511.818 68.83 512.102 67.4098C512.98 62.9889 512.867 58.5319 512.164 54.08C511.953 52.7424 511.834 51.4099 512.603 50V50.0052Z" fill="black" stroke="black" stroke-width="4.42" stroke-miterlimit="10"/>
<path d="M475.138 54.4346C477.599 53.9787 479.906 53.2897 482.239 53.1706C487.123 52.9167 492.082 52.1604 496.845 54.0098C501.862 55.9577 502.208 58.5013 501.931 63.6404C501.713 67.6553 499.093 70.5305 496.914 73.4212C492.513 79.2649 486.326 81.7101 479.587 82.4042C474.553 82.9275 469.467 82.9896 464.407 83C463.035 83 461.579 82.2177 460.341 81.4562C459.963 81.2231 459.889 79.7311 460.171 79.0473C464.332 68.8934 466.857 58.1387 470.2 47.6896C471.019 45.1304 472.385 42.8302 474.798 41.7164C476.174 41.0844 477.764 40.9912 479.236 40.5819C485.258 38.9138 491.269 37.2094 497.286 35.5257C497.95 35.3392 498.615 35.1424 499.295 35.0336C500.682 34.8056 501.995 35.7588 501.979 37.2819C501.963 38.5978 501.533 39.9343 501.129 41.2087C500.916 41.877 500.337 42.4003 499.975 43.0271C499.162 44.4362 498.253 45.3065 496.526 45.7262C489.914 47.3218 483.376 49.2748 476.823 51.1398C476.424 51.2538 475.994 51.6889 475.813 52.093C475.499 52.8027 475.366 53.6057 475.143 54.4346H475.138ZM469.509 72.5405C474.707 72.5354 479.714 72.8203 484.641 71.4941C487.639 70.6859 490.514 69.6343 492.997 67.588C493.799 66.93 494.331 66.1167 493.943 64.977C493.555 63.8424 492.741 63.3503 491.625 63.3555C488.357 63.3658 485.082 63.4125 481.814 63.3451C478.455 63.2726 475.372 64.2776 472.427 65.868C471.986 66.1063 471.54 66.5829 471.359 67.0595C470.71 68.7743 470.168 70.5409 469.504 72.5405H469.509Z" fill="black"/>
<path d="M346.47 65.2721C345.856 66.3623 344.96 66.5562 343.842 66.5195C342.077 66.4566 340.296 66.6348 338.542 66.4619C336.979 66.3099 335.431 65.8905 333.916 65.4555C332.432 65.031 332.199 63.8045 332.697 62.6199C333.651 60.34 334.854 58.17 337.207 56.9802C337.859 56.65 338.643 56.4351 339.374 56.4089C341.499 56.3356 343.625 56.3827 345.962 56.3827C345.617 55.3711 345.426 54.4749 345.018 53.6887C343.63 50.9999 342.199 48.3373 340.705 45.7061C340.487 45.3287 339.857 45.0142 339.39 44.9671C336.454 44.6735 333.799 45.5174 331.314 47.0426C330.206 47.724 327.683 47.2313 326.66 46.1097C325.717 45.0771 326.268 43.9712 326.772 42.9596C329.119 38.2476 333.115 35.8786 338.256 35.2234C339.433 35.0714 340.636 35.0976 341.823 35.019C344.658 34.825 346.709 36.1301 348.214 38.3682C351.563 43.3475 354.234 48.6465 354.839 54.6741C355.268 58.93 354.902 63.1493 352.994 67.138C349.852 73.7106 345.543 79.539 341.298 85.4094C339.014 88.5699 335.728 89.8435 331.918 89.9693C330.307 90.0217 328.696 89.9955 327.084 89.9746C323.036 89.9326 319.416 88.963 317.047 85.3412C316.824 85.0005 316.586 84.6494 316.289 84.3716C314.773 82.925 314.614 82.3274 315.706 80.5454C316.475 79.2822 317.365 78.0767 318.324 76.9446C319.813 75.1835 321.737 75.1206 323.396 76.7506C324.122 77.4635 324.652 78.3807 325.389 79.0883C325.876 79.5548 326.576 80.1103 327.169 80.0999C330.27 80.0474 333.375 79.9112 336.459 79.6019C337.281 79.5181 338.288 78.8891 338.76 78.2025C341.113 74.7851 343.344 71.2839 345.543 67.7722C346.004 67.0384 346.163 66.1264 346.46 65.293L346.47 65.2721Z" fill="black"/>
<path d="M15.9393 58.7582C15.1043 63.1606 14.227 67.4739 13.4712 71.803C12.6204 76.6667 12.2346 81.6142 10.9292 86.3887C10.2897 88.7314 8.18108 90.875 6.33666 92.8509C5.94558 93.2701 3.74707 92.7094 2.48399 92.3477C0.866815 91.8813 -0.248293 91.0113 0.0476597 89.3237C0.739978 85.3982 1.23147 81.4517 1.96078 77.5314C3.15516 71.1059 4.4711 64.691 5.75004 58.276C7.3355 50.3254 11.1142 43.1085 16.2088 36.2743C19.8237 31.4316 23.5178 26.7147 28.549 22.7263C33.0887 19.1309 44.5251 18.654 48.4624 23.9684C49.773 25.7346 50.3702 27.9778 50.7666 30.0689C51.6174 34.529 50.0795 38.5384 47.1729 42.38C40.6619 50.9753 31.4821 56.1743 19.459 58.0244C18.9094 58.1083 18.3915 58.3389 17.8418 58.4594C17.3028 58.5747 16.7426 58.6376 15.9446 58.7582H15.9393ZM19.0785 46.7196C19.2793 46.8506 19.4748 46.9816 19.6757 47.1126C20.7485 46.924 21.8319 46.7563 22.8994 46.5361C28.8978 45.315 34.4046 43.3077 38.7699 39.5551C40.2021 38.3235 39.3724 32.464 37.6707 31.5993C37.6125 31.5678 37.5597 31.4997 37.5068 31.4997C35.1128 31.636 32.4175 30.6087 30.4357 32.3697C28.4803 34.1045 26.5619 35.9231 25.0293 37.9147C22.8519 40.7448 21.0497 43.7741 19.0838 46.7143L19.0785 46.7196Z" fill="black"/>
<path d="M97.0962 20C101.597 20.2266 102.525 20.8906 101.758 24.5056C101.378 26.2921 99.881 27.9046 98.911 29.6068C98.0036 31.1982 96.4078 31.2667 94.5148 31.4828C90.2959 31.9623 86.5255 33.5696 83.3809 36.0253C81.6912 37.3428 80.2519 38.8868 78.6144 40.2569C77.1073 41.5164 76.6588 43.0657 76.6275 44.7468C76.5806 47.3448 76.5493 49.9427 76.6171 52.5407C76.6796 54.87 78.2598 56.6353 80.085 58.1899C82.7394 60.4559 85.6129 62.5427 88.2569 64.8193C91.4641 67.5753 94.155 70.6792 95.2449 74.5051C96.7259 79.7011 96.4495 84.6757 92.9034 89.4185C89.159 94.43 84.9975 99.0516 78.6874 101.881C75.7722 103.188 72.6589 104.421 69.4622 104.948C67.6369 105.249 65.4101 104.169 63.491 103.473C63.0738 103.32 62.8444 102.013 63.1208 101.439C64.9095 97.6973 67.2302 94.625 72.5755 93.5658C76.956 92.6963 80.9559 90.5778 83.9806 87.632C85.6807 85.9721 84.9819 83.7851 84.4395 81.8827C83.2296 77.6564 79.8816 74.563 76.2833 71.6225C73.5298 69.3671 70.6929 67.1538 68.2314 64.6875C66.135 62.5849 65.1755 59.9237 65.2745 57.1518C65.3997 53.6368 65.6761 50.1166 66.0516 46.6123C66.547 41.9801 69.3005 38.1543 72.6589 34.6499C75.0734 32.1362 77.78 29.8176 80.3614 27.4145C83.6833 24.3159 87.9805 22.4821 92.4601 20.9486C93.9151 20.4479 95.5474 20.3162 97.0962 20.0158V20Z" fill="black"/>
<path d="M34 88.9125C34.0103 85.0179 38.4607 79.712 42.906 79.0337C44.6656 78.7657 46.9192 80.1386 46.9809 81.6757C47.0632 83.7379 46.9397 85.8056 45.3808 87.5778C44.4187 88.6718 43.7087 89.9409 42.7105 91.013C42.2475 91.5108 41.2854 92.0961 40.7143 91.9867C38.6665 91.5983 36.6343 91.0239 34.7049 90.291C34.1904 90.094 34.0772 89.0766 34 88.9125Z" fill="black"/>
<path d="M650.629 64C649.054 63.3488 647.702 62.7047 646.293 62.2376C644.876 61.7705 644.912 60.7725 645.128 59.6895C646.156 54.5297 648.623 49.9928 651.83 45.8947C654.8 42.1009 658 38.4628 661.309 34.9451C664.343 31.7176 663.933 28.2069 662.531 24.6609C660.891 20.5132 655.915 19.041 652.053 21.3413C651.809 21.49 651.557 21.6882 651.42 21.9217C650.083 24.1938 648.774 26.4799 647.422 28.7449C647.228 29.0704 646.868 29.4385 646.523 29.5093C643.891 30.0543 640.834 27.5062 641.007 24.8662C641.287 20.5274 643.682 17.1654 646.552 14.1431C647.997 12.6213 649.673 11.2341 651.463 10.1299C656.066 7.30582 661.057 7.49693 665.803 9.4929C670.442 11.4464 672.743 15.3605 673.642 20.2584C674.972 27.4779 672.477 33.5366 668.119 39.0362C664.638 43.4245 660.87 47.5934 657.36 51.9604C656.433 53.1142 655.706 54.5864 655.397 56.0161C654.7 59.2649 652.219 61.3175 650.636 64H650.629Z" fill="black"/>
<path d="M650.868 74.0678C651.49 76.6981 649.661 78.5847 648.31 80.6296C647.96 81.1598 647.431 82.0136 647.01 81.9998C646.017 81.9654 645.023 81.5454 644.066 81.1942C643.573 81.0152 643.166 80.6365 642.701 80.3818C640.929 79.404 640.586 78.5296 641.465 76.7325C642.901 73.7924 645.331 71.7543 648.174 70.1363C648.982 69.6749 650.454 70.453 650.768 71.4514C650.904 71.8714 650.975 72.3189 650.997 72.7596C651.018 73.1521 650.925 73.5514 650.868 74.0678Z" fill="black"/>
</svg>
